<?xml version="1.0" encoding="utf-8"?><svg xml:space="preserve" viewBox="0 0 100 100" y="0" x="0" xmlns="http://www.w3.org/2000/svg" id="圖層_1" version="1.1" width="226px" height="226px" xmlns:xlink="http://www.w3.org/1999/xlink" style="width:100%;height:100%;background-size:initial;background-repeat-y:initial;background-repeat-x:initial;background-position-y:initial;background-position-x:initial;background-origin:initial;background-color:initial;background-clip:initial;background-attachment:initial;animation-play-state:paused" ><g class="ldl-scale" style="transform-origin:50% 50%;transform:rotate(0deg) scale(0.65, 0.65);animation-play-state:paused" ><g style="animation-play-state:paused" ><path fill="#e0e0e0" d="M35.4 37c-.7 0-1.3-.4-1.6-1-.4-.9.1-1.9.9-2.2L46.2 29l2-7.7c.2-.9 1.2-1.5 2.1-1.2.9.2 1.5 1.2 1.2 2.1l-2.2 8.5c-.1.5-.5.9-1 1.1L36 36.9c-.2.1-.4.1-.6.1z" style="fill:rgb(102, 115, 149);animation-play-state:paused" ></path></g>
<g style="animation-play-state:paused" ><path fill="#e0e0e0" d="M61.2 30.5l-12.9 5.4 4.8 11.7 1.3 3.1 1.1 2.7-.7.3L27.5 65l1.3 3.1 27.3-11.4.7-.3 2.4 5.8L64.1 74 77 68.6l9.8-4.1L82 52.8l-4.8-11.7-1.3-3.1L71 26.4l-9.8 4.1zm11.4 36.2l-6.7 2.8-3.5-8.5 6.7-2.8 3.5 8.5zm-4.8-11.6l-6.7 2.8-3.5-8.5 6.7-2.8 3.5 8.5zm-4.9-11.7l-6.7 2.8-3.5-8.5 6.7-2.8 3.5 8.5zm19.5 19.3l-6.7 2.8-3.5-8.5 6.7-2.8 3.5 8.5zM77.6 51l-6.7 2.8-3.5-8.5 6.7-2.8 3.5 8.5zm-4.9-11.6L66 42.1l-3.5-8.5 6.7-2.8 3.5 8.6z" style="fill:rgb(102, 115, 149);animation-play-state:paused" ></path></g>
<g style="animation-play-state:paused" ><path fill="#f8b26a" d="M52 72.4l-15.3 6.4.5 9c.1 1.7 1.9 2.8 3.6 2.1L57 83c1.7-.7 2.2-2.7 1-4l-6-6.6z" style="fill:rgb(245, 244, 250);animation-play-state:paused" ></path></g>
<g style="animation-play-state:paused" ><path fill="#f5e6c8" d="M54.5 72.7l-19.3 8c-2.7 1.1-5.9-.2-7-2.9L14.4 44.7c-3.4-8 .4-17.3 8.5-20.7 8.1-3.4 17.3.5 20.7 8.6l13.8 33.1c1.1 2.8-.2 5.9-2.9 7z" style="fill:rgb(148, 169, 206);animation-play-state:paused" ></path></g>
<g style="animation-play-state:paused" ><path d="M15.5 41h31.7v6.5H15.5z" fill="#849b87" transform="rotate(-22.557 31.32 44.259)" style="fill:rgb(242, 190, 209);animation-play-state:paused" ></path></g>
<g style="animation-play-state:paused" ><circle r="6.7" fill="#a0c8d7" cy="59.8" cx="37.8" transform="rotate(-22.557 37.768 59.785)" style="fill:rgb(181, 204, 241);animation-play-state:paused" ></circle>
<path fill="#333" d="M37.8 67.3c-1 0-1.9-.2-2.9-.6-1.9-.8-3.3-2.2-4.1-4.1-.8-1.9-.8-3.9 0-5.8s2.2-3.3 4.1-4.1c3.8-1.6 8.2.2 9.8 4.1.8 1.9.8 3.9 0 5.8s-2.2 3.3-4.1 4.1c-.9.4-1.9.6-2.8.6zm0-13.3c-.7 0-1.5.1-2.2.4-1.4.6-2.6 1.7-3.2 3.2-.6 1.4-.6 3 0 4.5.6 1.4 1.7 2.6 3.2 3.2 1.4.6 3 .6 4.5 0 1.4-.6 2.6-1.7 3.2-3.2.6-1.4.6-3 0-4.5-1.1-2.3-3.2-3.6-5.5-3.6z" style="fill:rgb(85, 43, 47);animation-play-state:paused" ></path></g>
<g style="animation-play-state:paused" ><path d="M68.8 43.5H76v9.2h-7.2z" fill="#fff" transform="rotate(-22.557 72.455 48.131)" style="fill:rgb(41, 38, 100);animation-play-state:paused" ></path></g>
<g style="animation-play-state:paused" ><path d="M73.7 55.2h7.2v9.2h-7.2z" fill="#fff" transform="rotate(-22.557 77.296 59.788)" style="fill:rgb(41, 38, 100);animation-play-state:paused" ></path></g>
<g style="animation-play-state:paused" ><path d="M64 31.9h7.2v9.2H64z" fill="#fff" transform="rotate(-22.557 67.614 36.475)" style="fill:rgb(41, 38, 100);animation-play-state:paused" ></path></g>
<g style="animation-play-state:paused" ><path d="M59 47.6h7.2v9.2H59z" fill="#fff" transform="rotate(-22.557 62.64 52.208)" style="fill:rgb(41, 38, 100);animation-play-state:paused" ></path></g>
<g style="animation-play-state:paused" ><path d="M54.2 35.9h7.2v9.2h-7.2z" fill="#fff" transform="rotate(-22.557 57.799 40.551)" style="fill:rgb(41, 38, 100);animation-play-state:paused" ></path></g>
<g style="animation-play-state:paused" ><path d="M63.9 59.3h7.2v9.2h-7.2z" fill="#fff" transform="rotate(-22.557 67.482 63.865)" style="fill:rgb(41, 38, 100);animation-play-state:paused" ></path></g>
<g style="animation-play-state:paused" ><path fill="#666" d="M41.2 12.1c-1.6 5.8 1.2 12.1 6.9 14.7 5.7 2.5 12.3.4 15.5-4.7l-22.4-10z" style="fill:rgb(135, 67, 77);animation-play-state:paused" ></path></g>
<g style="animation-play-state:paused" ><path fill="#e0e0e0" d="M50.4 16.1l4.3-5.8c.4-.6 1.4-.2 1.3.6L54.5 18l-4.1-1.9z" style="fill:rgb(102, 115, 149);animation-play-state:paused" ></path></g>
<metadata xmlns:d="https://loading.io/stock/" style="animation-play-state:paused" ><d:name style="animation-play-state:paused" >satellite</d:name>
<d:tags style="animation-play-state:paused" >iis,space shuttle,rocket,radar,travel,satellite,astrology</d:tags>
<d:license style="animation-play-state:paused" >pro</d:license>
<d:slug style="animation-play-state:paused" >w99o3g</d:slug></metadata></g><!-- generated by https://loading.io/ --></svg>